# xmcd CD database file
#
# Track frame offsets:
#	150
#	23336
#	44416
#	73202
#	98410
#	117133
#	138768
#	173461
#	193922
#	219117
#	242476
#
# Disc length: 3637 seconds
#
# Revision: 2
# Processed by: cddbd v1.5.2PL0 Copyright (c) Steve Scherf et al.
# Submitted via: CDex 1.70beta2
#
DISCID=840e330b
DTITLE=Oliver Shanti and Friends - Man Heaven Earth
DYEAR=2006
DGENRE=New Age
TTITLE0=Onon Mweng (Rainbird)
TTITLE1=Lamour Magica Amor
TTITLE2=Heya Haya
TTITLE3=Tara Shakti Mantra
TTITLE4=Luohan Amitabhas Hands
TTITLE5=Existence Means Harmony
TTITLE6=Jerusalem
TTITLE7=Slow Changes
TTITLE8=Evolution 108
TTITLE9=Love Flows On
TTITLE10=Chenresie Flame of Peace and Compassion
EXTD=YEAR: 2006
EXTT0=
EXTT1=
EXTT2=
EXTT3=
EXTT4=
EXTT5=
EXTT6=
EXTT7=
EXTT8=
EXTT9=
EXTT10=
PLAYORDER=
